<?xml version="1.0" encoding="UTF-8" standalone="no"?><!-- Generator: Gravit.io --><svg xmlns="http://www.w3.org/2000/svg" xmlns:xlink="http://www.w3.org/1999/xlink" style="isolation:isolate" viewBox="182 312 19 19.998" width="19pt" height="19.998pt"><g><g><path d=" M 189.23 312.788 C 190.5 311.779 192.28 311.739 193.589 312.668 L 193.589 312.668 L 193.75 312.788 L 199.839 317.659 C 200.509 318.178 200.92 318.949 200.99 319.788 L 200.99 319.788 L 201 319.989 L 201 328.098 C 201 330.188 199.349 331.888 197.28 331.998 L 197.28 331.998 L 195.29 331.998 C 194.339 331.979 193.57 331.239 193.5 330.309 L 193.5 330.309 L 193.49 330.168 L 193.49 327.309 C 193.49 326.998 193.259 326.739 192.95 326.688 L 192.95 326.688 L 192.86 326.678 L 190.189 326.678 C 189.87 326.688 189.61 326.918 189.57 327.218 L 189.57 327.218 L 189.56 327.309 L 189.56 330.159 C 189.56 330.218 189.549 330.288 189.54 330.338 L 189.54 330.338 L 189.53 330.359 L 189.519 330.428 C 189.4 331.279 188.7 331.928 187.83 331.989 L 187.83 331.989 L 187.7 331.998 L 185.91 331.998 C 183.82 331.998 182.11 330.359 182 328.298 L 182 328.298 L 182 319.989 C 182.009 319.138 182.38 318.348 183 317.798 L 183 317.798 L 189.23 312.788 Z  M 192.88 313.878 C 192.12 313.268 191.04 313.239 190.24 313.768 L 190.24 313.768 L 190.089 313.878 L 184.009 318.779 C 183.66 319.038 183.45 319.428 183.4 319.838 L 183.4 319.838 L 183.389 319.998 L 183.389 328.098 C 183.389 329.428 184.429 330.518 185.75 330.598 L 185.75 330.598 L 187.7 330.598 C 187.92 330.598 188.11 330.449 188.139 330.239 L 188.139 330.239 L 188.16 330.059 L 188.17 330.008 L 188.17 327.309 C 188.17 326.239 188.99 325.369 190.04 325.288 L 190.04 325.288 L 192.86 325.288 C 193.929 325.288 194.799 326.109 194.88 327.159 L 194.88 327.159 L 194.88 330.168 C 194.88 330.378 195.03 330.559 195.23 330.598 L 195.23 330.598 L 197.089 330.598 C 198.429 330.598 199.519 329.569 199.599 328.258 L 199.599 328.258 L 199.61 328.098 L 199.61 319.998 C 199.599 319.569 199.42 319.168 199.11 318.869 L 199.11 318.869 L 198.98 318.758 L 192.88 313.878 Z " fill="rgb(46,78,207)"/></g></g></svg>