<?xml version="1.0" encoding="UTF-8" standalone="no"?><!-- Generator: Gravit.io --><svg xmlns="http://www.w3.org/2000/svg" xmlns:xlink="http://www.w3.org/1999/xlink" style="isolation:isolate" viewBox="182 196 19 19.998" width="19pt" height="19.998pt"><g><g><path d=" M 189.23 196.788 C 190.5 195.779 192.28 195.739 193.589 196.668 L 193.589 196.668 L 193.75 196.788 L 199.839 201.659 C 200.509 202.178 200.92 202.949 200.99 203.788 L 200.99 203.788 L 201 203.989 L 201 212.098 C 201 214.188 199.349 215.888 197.28 215.998 L 197.28 215.998 L 195.29 215.998 C 194.339 215.979 193.57 215.239 193.5 214.309 L 193.5 214.309 L 193.49 214.168 L 193.49 211.309 C 193.49 210.998 193.259 210.739 192.95 210.688 L 192.95 210.688 L 192.86 210.678 L 190.189 210.678 C 189.87 210.688 189.61 210.918 189.57 211.218 L 189.57 211.218 L 189.56 211.309 L 189.56 214.159 C 189.56 214.218 189.549 214.288 189.54 214.338 L 189.54 214.338 L 189.53 214.359 L 189.519 214.428 C 189.4 215.279 188.7 215.928 187.83 215.989 L 187.83 215.989 L 187.7 215.998 L 185.91 215.998 C 183.82 215.998 182.11 214.359 182 212.298 L 182 212.298 L 182 203.989 C 182.009 203.138 182.38 202.348 183 201.798 L 183 201.798 L 189.23 196.788 Z  M 192.88 197.878 C 192.12 197.268 191.04 197.239 190.24 197.768 L 190.24 197.768 L 190.089 197.878 L 184.009 202.779 C 183.66 203.038 183.45 203.428 183.4 203.838 L 183.4 203.838 L 183.389 203.998 L 183.389 212.098 C 183.389 213.428 184.429 214.518 185.75 214.598 L 185.75 214.598 L 187.7 214.598 C 187.92 214.598 188.11 214.449 188.139 214.239 L 188.139 214.239 L 188.16 214.059 L 188.17 214.008 L 188.17 211.309 C 188.17 210.239 188.99 209.369 190.04 209.288 L 190.04 209.288 L 192.86 209.288 C 193.929 209.288 194.799 210.109 194.88 211.159 L 194.88 211.159 L 194.88 214.168 C 194.88 214.378 195.03 214.559 195.23 214.598 L 195.23 214.598 L 197.089 214.598 C 198.429 214.598 199.519 213.569 199.599 212.258 L 199.599 212.258 L 199.61 212.098 L 199.61 203.998 C 199.599 203.569 199.42 203.168 199.11 202.869 L 199.11 202.869 L 198.98 202.758 L 192.88 197.878 Z " fill="rgb(180,176,176)"/></g></g></svg>