<?xml version="1.0" encoding="UTF-8" standalone="no"?><!-- Generator: Gravit.io --><svg xmlns="http://www.w3.org/2000/svg" xmlns:xlink="http://www.w3.org/1999/xlink" style="isolation:isolate" viewBox="280 261 17 20" width="17pt" height="20pt"><g><g><path d=" M 291.108 278.691 C 291.405 278.932 291.452 279.371 291.213 279.672 C 291.037 279.893 290.833 280.092 290.617 280.255 C 289.889 280.826 288.964 281.085 288.045 280.975 C 287.126 280.866 286.287 280.396 285.715 279.669 C 285.477 279.368 285.526 278.929 285.824 278.689 C 286.122 278.448 286.556 278.498 286.793 278.799 C 287.138 279.238 287.647 279.523 288.206 279.59 C 288.767 279.656 289.331 279.499 289.783 279.144 C 289.916 279.044 290.036 278.927 290.139 278.797 C 290.378 278.497 290.811 278.449 291.108 278.691 Z  M 281.652 268 L 281.664 267.404 C 281.673 267.149 281.687 266.912 281.707 266.681 C 282.007 263.445 285.096 261 288.465 261 L 288.465 261 L 288.536 261 C 291.903 261 294.993 263.443 295.303 266.685 C 295.321 266.891 295.329 267.075 295.331 267.332 L 295.331 267.332 L 295.332 268.12 C 295.333 268.192 295.334 268.255 295.336 268.314 L 295.336 268.314 L 295.345 268.51 L 295.39 268.697 C 295.53 269.218 295.778 269.705 296.116 270.128 L 296.116 270.128 L 296.267 270.305 L 296.329 270.385 C 296.735 270.992 296.967 271.698 297 272.459 L 297 272.459 L 296.999 272.862 C 296.971 273.763 296.64 274.633 296.034 275.358 C 295.231 276.21 294.143 276.739 292.987 276.846 C 290.002 277.17 286.99 277.17 284.013 276.847 C 282.849 276.735 281.764 276.207 280.927 275.322 C 280.309 274.569 279.98 273.621 280.001 272.662 L 280.001 272.662 L 280.002 272.424 C 280.037 271.696 280.268 270.99 280.669 270.38 L 280.669 270.38 L 280.737 270.294 C 281.205 269.78 281.526 269.151 281.665 268.473 L 281.65 268.534 L 281.652 268 Z  M 288.536 262.395 L 288.465 262.395 C 285.767 262.395 283.308 264.341 283.08 266.807 C 283.068 266.942 283.059 267.082 283.051 267.229 L 283.051 267.229 L 283.035 267.696 L 283.029 268.615 L 283.014 268.757 C 282.824 269.683 282.387 270.541 281.749 271.24 L 281.799 271.183 L 281.71 271.329 C 281.545 271.626 281.439 271.95 281.397 272.268 L 281.397 272.268 L 281.379 272.459 L 281.379 272.677 C 281.366 273.314 281.581 273.936 281.954 274.393 C 282.529 274.998 283.307 275.377 284.152 275.458 C 287.039 275.772 289.953 275.772 292.851 275.457 C 293.687 275.38 294.465 275.002 295.008 274.427 C 295.42 273.933 295.637 273.31 295.622 272.654 L 295.622 272.654 L 295.622 272.49 C 295.601 272.019 295.451 271.561 295.187 271.167 L 295.203 271.193 L 295.065 271.031 C 294.589 270.444 294.244 269.764 294.052 269.034 L 294.052 269.034 L 293.987 268.758 L 293.974 268.666 C 293.964 268.53 293.959 268.41 293.956 268.265 L 293.956 268.265 L 293.953 267.36 C 293.951 267.13 293.945 266.976 293.931 266.813 C 293.694 264.341 291.234 262.395 288.536 262.395 L 288.536 262.395 Z " fill="rgb(180,176,176)"/></g></g></svg>