<?xml version="1.0" encoding="UTF-8" standalone="no"?><!-- Generator: Gravit.io --><svg xmlns="http://www.w3.org/2000/svg" xmlns:xlink="http://www.w3.org/1999/xlink" style="isolation:isolate" viewBox="280 377 17 20" width="17pt" height="20pt"><g><g><path d=" M 291.108 394.691 C 291.405 394.932 291.452 395.371 291.213 395.672 C 291.037 395.893 290.833 396.092 290.617 396.255 C 289.889 396.826 288.964 397.085 288.045 396.975 C 287.126 396.866 286.287 396.396 285.715 395.669 C 285.477 395.368 285.526 394.929 285.824 394.689 C 286.122 394.448 286.556 394.498 286.793 394.799 C 287.138 395.238 287.647 395.523 288.206 395.59 C 288.767 395.656 289.331 395.499 289.783 395.144 C 289.916 395.044 290.036 394.927 290.139 394.797 C 290.378 394.497 290.811 394.449 291.108 394.691 Z  M 281.652 384 L 281.664 383.404 C 281.673 383.149 281.687 382.912 281.707 382.681 C 282.007 379.445 285.096 377 288.465 377 L 288.465 377 L 288.536 377 C 291.903 377 294.993 379.443 295.303 382.685 C 295.321 382.891 295.329 383.075 295.331 383.332 L 295.331 383.332 L 295.332 384.12 C 295.333 384.192 295.334 384.255 295.336 384.314 L 295.336 384.314 L 295.345 384.51 L 295.39 384.697 C 295.53 385.218 295.778 385.705 296.116 386.128 L 296.116 386.128 L 296.267 386.305 L 296.329 386.385 C 296.735 386.992 296.967 387.698 297 388.459 L 297 388.459 L 296.999 388.862 C 296.971 389.763 296.64 390.633 296.034 391.358 C 295.231 392.21 294.143 392.739 292.987 392.846 C 290.002 393.17 286.99 393.17 284.013 392.847 C 282.849 392.735 281.764 392.207 280.927 391.322 C 280.309 390.569 279.98 389.621 280.001 388.662 L 280.001 388.662 L 280.002 388.424 C 280.037 387.696 280.268 386.99 280.669 386.38 L 280.669 386.38 L 280.737 386.294 C 281.205 385.78 281.526 385.151 281.665 384.473 L 281.65 384.534 L 281.652 384 Z  M 288.536 378.395 L 288.465 378.395 C 285.767 378.395 283.308 380.341 283.08 382.807 C 283.068 382.942 283.059 383.082 283.051 383.229 L 283.051 383.229 L 283.035 383.696 L 283.029 384.615 L 283.014 384.757 C 282.824 385.683 282.387 386.541 281.749 387.24 L 281.799 387.183 L 281.71 387.329 C 281.545 387.626 281.439 387.95 281.397 388.268 L 281.397 388.268 L 281.379 388.459 L 281.379 388.677 C 281.366 389.314 281.581 389.936 281.954 390.393 C 282.529 390.998 283.307 391.377 284.152 391.458 C 287.039 391.772 289.953 391.772 292.851 391.457 C 293.687 391.38 294.465 391.002 295.008 390.427 C 295.42 389.933 295.637 389.31 295.622 388.654 L 295.622 388.654 L 295.622 388.49 C 295.601 388.019 295.451 387.561 295.187 387.167 L 295.203 387.193 L 295.065 387.031 C 294.589 386.444 294.244 385.764 294.052 385.034 L 294.052 385.034 L 293.987 384.758 L 293.974 384.666 C 293.964 384.53 293.959 384.41 293.956 384.265 L 293.956 384.265 L 293.953 383.36 C 293.951 383.13 293.945 382.976 293.931 382.813 C 293.694 380.341 291.234 378.395 288.536 378.395 L 288.536 378.395 Z " fill="rgb(46,78,207)"/></g></g></svg>