<?xml version="1.0" encoding="UTF-8" standalone="no"?><!-- Generator: Gravit.io --><svg xmlns="http://www.w3.org/2000/svg" xmlns:xlink="http://www.w3.org/1999/xlink" style="isolation:isolate" viewBox="238 312 16 20" width="16pt" height="20pt"><g><g><path d=" M 243.83 324.821 C 245.274 324.694 246.726 324.694 248.17 324.821 L 248.17 324.821 L 248.631 324.86 C 249.261 324.922 249.887 325.019 250.503 325.151 C 252.074 325.474 253.214 326.048 253.719 327.113 C 254.094 327.905 254.094 328.824 253.719 329.616 C 253.213 330.684 252.058 331.262 250.515 331.567 L 250.515 331.567 L 250.048 331.664 C 249.423 331.783 248.793 331.865 248.168 331.908 C 246.993 332.008 245.814 332.026 244.676 331.964 C 244.551 331.964 244.466 331.963 244.392 331.962 L 244.392 331.962 L 244.248 331.956 C 244.073 331.947 243.912 331.929 243.844 331.909 C 243.053 331.855 242.267 331.741 241.512 331.57 L 241.512 331.57 L 241.256 331.517 C 239.828 331.2 238.77 330.627 238.281 329.615 C 238.095 329.223 237.999 328.794 238 328.363 C 237.998 327.929 238.095 327.5 238.287 327.1 C 238.797 326.076 239.994 325.46 241.491 325.152 C 242.266 324.986 243.052 324.875 243.83 324.821 Z  M 248.044 326.263 C 246.684 326.143 245.316 326.143 243.943 326.264 C 243.22 326.314 242.501 326.416 241.786 326.569 C 240.679 326.797 239.833 327.232 239.581 327.738 C 239.489 327.931 239.441 328.143 239.442 328.361 C 239.441 328.58 239.49 328.797 239.58 328.989 C 239.839 329.524 240.638 329.924 241.808 330.154 L 241.808 330.154 L 242.16 330.228 C 242.751 330.345 243.359 330.426 244.034 330.477 C 244.12 330.494 244.212 330.505 244.321 330.51 L 244.321 330.51 L 244.715 330.517 C 245.825 330.577 246.938 330.56 248.058 330.465 C 248.779 330.415 249.496 330.311 250.22 330.15 L 250.22 330.15 L 250.444 330.102 C 251.472 329.869 252.183 329.488 252.417 328.994 C 252.606 328.596 252.606 328.133 252.417 327.735 C 252.167 327.207 251.375 326.808 250.209 326.568 C 249.499 326.417 248.78 326.315 248.056 326.264 L 248.056 326.264 L 248.044 326.263 Z  M 246.004 312 C 248.938 312 251.317 314.389 251.317 317.335 C 251.317 320.282 248.938 322.67 246.004 322.67 C 243.07 322.67 240.692 320.282 240.692 317.335 C 240.692 314.389 243.07 312 246.004 312 Z  M 246.004 313.448 C 243.866 313.448 242.133 315.188 242.133 317.335 C 242.133 319.482 243.866 321.223 246.004 321.223 C 248.142 321.223 249.875 319.482 249.875 317.335 C 249.875 315.188 248.142 313.448 246.004 313.448 Z " fill="rgb(46,78,207)"/></g></g></svg>