<?xml version="1.0" encoding="UTF-8" standalone="no"?><!-- Generator: Gravit.io --><svg xmlns="http://www.w3.org/2000/svg" xmlns:xlink="http://www.w3.org/1999/xlink" style="isolation:isolate" viewBox="238 196 16 20" width="16pt" height="20pt"><g><g><path d=" M 243.83 208.821 C 245.274 208.694 246.726 208.694 248.17 208.821 L 248.17 208.821 L 248.631 208.86 C 249.261 208.922 249.887 209.019 250.503 209.151 C 252.074 209.474 253.214 210.048 253.719 211.113 C 254.094 211.905 254.094 212.824 253.719 213.616 C 253.213 214.684 252.058 215.262 250.515 215.567 L 250.515 215.567 L 250.048 215.664 C 249.423 215.783 248.793 215.865 248.168 215.908 C 246.993 216.008 245.814 216.026 244.676 215.964 C 244.551 215.964 244.466 215.963 244.392 215.962 L 244.392 215.962 L 244.248 215.956 C 244.073 215.947 243.912 215.929 243.844 215.909 C 243.053 215.855 242.267 215.741 241.512 215.57 L 241.512 215.57 L 241.256 215.517 C 239.828 215.2 238.77 214.627 238.281 213.615 C 238.095 213.223 237.999 212.794 238 212.363 C 237.998 211.929 238.095 211.5 238.287 211.1 C 238.797 210.076 239.994 209.46 241.491 209.152 C 242.266 208.986 243.052 208.875 243.83 208.821 Z  M 248.044 210.263 C 246.684 210.143 245.316 210.143 243.943 210.264 C 243.22 210.314 242.501 210.416 241.786 210.569 C 240.679 210.797 239.833 211.232 239.581 211.738 C 239.489 211.931 239.441 212.143 239.442 212.361 C 239.441 212.58 239.49 212.797 239.58 212.989 C 239.839 213.524 240.638 213.924 241.808 214.154 L 241.808 214.154 L 242.16 214.228 C 242.751 214.345 243.359 214.426 244.034 214.477 C 244.12 214.494 244.212 214.505 244.321 214.51 L 244.321 214.51 L 244.715 214.517 C 245.825 214.577 246.938 214.56 248.058 214.465 C 248.779 214.415 249.496 214.311 250.22 214.15 L 250.22 214.15 L 250.444 214.102 C 251.472 213.869 252.183 213.488 252.417 212.994 C 252.606 212.596 252.606 212.133 252.417 211.735 C 252.167 211.207 251.375 210.808 250.209 210.568 C 249.499 210.417 248.78 210.315 248.056 210.264 L 248.056 210.264 L 248.044 210.263 Z  M 246.004 196 C 248.938 196 251.317 198.389 251.317 201.335 C 251.317 204.282 248.938 206.67 246.004 206.67 C 243.07 206.67 240.692 204.282 240.692 201.335 C 240.692 198.389 243.07 196 246.004 196 Z  M 246.004 197.448 C 243.866 197.448 242.133 199.188 242.133 201.335 C 242.133 203.482 243.866 205.223 246.004 205.223 C 248.142 205.223 249.875 203.482 249.875 201.335 C 249.875 199.188 248.142 197.448 246.004 197.448 Z " fill="rgb(180,176,176)"/></g></g></svg>